<svg width="38" height="38" viewBox="0 0 38 38" fill="none" xmlns="http://www.w3.org/2000/svg">
<path d="M31.4801 3.15381H29.6569C29.0529 3.15381 28.5632 3.64379 28.5632 4.24821V9.10955C28.5632 9.71397 29.0529 10.2039 29.6569 10.2039H31.4801C32.0842 10.2039 32.5738 9.71397 32.5738 9.10955V4.24821C32.5738 3.64379 32.0842 3.15381 31.4801 3.15381Z" fill="#384B61"/>
<path d="M0.922333 11.397H37.56V15.3711C37.56 16.1108 36.9595 16.7117 36.2203 16.7117H2.2621C1.52284 16.7117 0.922333 16.1108 0.922333 15.3711V11.397Z" fill="#384B61"/>
<path d="M17.328 0.875921L0.835571 11.3969H37.56L21.0676 0.875921C19.9273 0.14813 18.4683 0.14813 17.328 0.875921Z" fill="#384B61"/>
<path d="M0.922333 15.3018H37.56V15.3712C37.56 16.1109 36.9595 16.7118 36.2203 16.7118H2.2621C1.52284 16.7118 0.922333 16.1109 0.922333 15.3712V15.3018Z" fill="#384B61"/>
<path d="M3.19855 16.712V36.3081C3.19855 36.8071 3.60286 37.2116 4.10148 37.2116H14.4674C14.8879 37.2116 15.237 36.8743 15.2402 36.4524C15.2402 36.4134 15.238 36.3927 15.2305 36.3993V24.3555C15.2305 23.9075 15.5936 23.5441 16.0413 23.5441H22.2241C22.6718 23.5441 23.0349 23.9075 23.0349 24.3555V36.3993C23.0349 36.3993 23.0425 36.4025 23.0436 36.4199C23.075 36.8635 23.4403 37.2106 23.8848 37.2106H34.1639C34.6625 37.2106 35.0668 36.806 35.0668 36.3071V16.7109H3.19855V16.712Z" fill="#384B61"/>
</svg>
