<svg width="36" height="38" viewBox="0 0 36 38" fill="none" xmlns="http://www.w3.org/2000/svg">
<path d="M18.144 21.9702C14.5479 21.9702 10.9505 21.969 7.35446 21.9728C6.92959 21.9728 6.50346 21.9906 6.07986 22.025C3.1567 22.2592 0.546451 24.8125 0.351828 27.7452C0.238616 29.4419 0.332745 31.15 0.266599 32.8506C0.233526 33.7059 0.574436 34.3029 1.27788 34.6733C2.02584 35.0679 2.79798 35.4484 3.60064 35.7017C7.19036 36.8282 10.9073 37.1719 14.6395 37.3501C18.8423 37.5512 23.0375 37.4226 27.2124 36.8626C29.3902 36.5711 31.5539 36.1956 33.6057 35.3733C34.2341 35.1213 34.8256 34.7547 35.3955 34.3831C35.7708 34.1387 35.9972 33.753 35.9959 33.268C35.9921 31.6197 36.0086 29.9714 35.987 28.323C35.9705 26.9674 35.5507 25.7277 34.7366 24.6432C33.4022 22.8625 31.5997 21.9817 29.3851 21.9753C25.6376 21.9626 21.8902 21.9715 18.1414 21.9715L18.144 21.9702ZM27.8726 10.6177C27.879 5.23612 23.5247 0.868975 18.1453 0.861338C12.8154 0.853701 8.41789 5.2183 8.40771 10.5273C8.39754 15.9815 12.7327 20.3652 18.1363 20.3639C23.5133 20.3639 27.8662 16.007 27.8713 10.6177H27.8726Z" fill="#384B61"/>
<path d="M18.144 21.9713C21.8914 21.9713 25.6389 21.9624 29.3876 21.9751C31.6035 21.9827 33.4048 22.8636 34.7391 24.643C35.5532 25.7287 35.9717 26.9672 35.9895 28.3228C36.0099 29.9711 35.9934 31.6195 35.9985 33.2678C35.9985 33.7528 35.7733 34.1384 35.398 34.3828C34.8269 34.7545 34.2367 35.1211 33.6083 35.3731C31.5565 36.1941 29.3927 36.5696 27.215 36.8623C23.0401 37.4224 18.8449 37.5497 14.642 37.3498C10.9086 37.1716 7.1929 36.828 3.60318 35.7015C2.79924 35.4495 2.02838 35.0676 1.28042 34.673C0.576973 34.3026 0.23479 33.707 0.269136 32.8503C0.335282 31.1498 0.242424 29.4404 0.354365 27.7449C0.548988 24.8123 3.15923 22.259 6.0824 22.0248C6.50599 21.9904 6.93213 21.9738 7.35699 21.9726C10.9531 21.9687 14.5504 21.97 18.1465 21.9726L18.144 21.9713Z" fill="#384B61"/>
<path d="M27.8713 10.6163C27.8649 16.0055 23.5133 20.3624 18.1363 20.3624C12.7326 20.3624 8.39623 15.9788 8.40768 10.5259C8.41785 5.21683 12.8153 0.852236 18.1452 0.859873C23.5247 0.86751 27.8777 5.23465 27.8726 10.6163H27.8713Z" fill="#384B61"/>
</svg>
