<svg width="41" height="38" viewBox="0 0 41 38" fill="none" xmlns="http://www.w3.org/2000/svg">
<path d="M3.41318 34.2195H39.7722C40.2059 34.2195 40.557 34.5721 40.557 35.0049V36.615C40.557 37.0491 40.2047 37.4004 39.7722 37.4004H3.41318V34.2183V34.2195Z" fill="#384B61"/>
<path d="M4.68402 21.6148L4.68402 32.187C4.68402 32.677 5.08097 33.0742 5.57064 33.0742H9.52162C10.0113 33.0742 10.4082 32.677 10.4082 32.187V21.6148C10.4082 21.1248 10.0113 20.7276 9.52162 20.7276H5.57064C5.08097 20.7276 4.68402 21.1248 4.68402 21.6148Z" fill="#384B61"/>
<path d="M14.2244 14.6141L14.2244 32.187C14.2244 32.677 14.6213 33.0742 15.111 33.0742H19.062C19.5516 33.0742 19.9486 32.677 19.9486 32.187V14.6141C19.9486 14.1241 19.5516 13.7269 19.062 13.7269H15.111C14.6213 13.7269 14.2244 14.1241 14.2244 14.6141Z" fill="#384B61"/>
<path d="M23.8919 18.1781V32.187C23.8919 32.677 24.2889 33.0742 24.7785 33.0742H28.7295C29.2192 33.0742 29.6161 32.677 29.6161 32.187V18.1781C29.6161 17.6881 29.2192 17.2909 28.7295 17.2909H24.7785C24.2889 17.2909 23.8919 17.6881 23.8919 18.1781Z" fill="#384B61"/>
<path d="M33.4323 10.9228V32.187C33.4323 32.677 33.8293 33.0742 34.319 33.0742H38.2699C38.7596 33.0742 39.1566 32.677 39.1566 32.187V10.9228C39.1566 10.4329 38.7596 10.0357 38.2699 10.0357H34.319C33.8293 10.0357 33.4323 10.4329 33.4323 10.9228Z" fill="#384B61"/>
<path d="M0.231834 36.5144L0.231834 1.12284C0.231834 0.632793 0.629985 0.235668 1.11845 0.235668H2.52406C3.0138 0.235668 3.41068 0.634064 3.41068 1.12284L3.41068 37.4028H1.11718C0.62744 37.4028 0.23056 37.0044 0.23056 36.5157L0.231834 36.5144Z" fill="#384B61"/>
</svg>
